<svg width="24" height="24" viewBox="0 0 24 24" fill="none" xmlns="http://www.w3.org/2000/svg">
<path d="M6 5.12488H3V20.1249H21V5.12488H19M8.5 5.12488H16.5" stroke="#6FCBD5"/>
<line x1="7.25018" y1="2.87488" x2="7.25018" y2="6.62488" stroke="#6FCBD5"/>
<line x1="17.7498" y1="2.87488" x2="17.7498" y2="6.62488" stroke="#6FCBD5"/>
<line x1="3" y1="9.12488" x2="21" y2="9.12488" stroke="#6FCBD5"/>
<line x1="7.49928" y1="12.125" x2="9.74928" y2="12.125" stroke="#6FCBD5"/>
<line x1="10.8742" y1="12.125" x2="13.1242" y2="12.125" stroke="#6FCBD5"/>
<line x1="14.2492" y1="12.125" x2="16.4992" y2="12.125" stroke="#6FCBD5"/>
<line x1="7.49939" y1="14.375" x2="9.74939" y2="14.375" stroke="#6FCBD5"/>
<line x1="10.8743" y1="14.375" x2="13.1243" y2="14.375" stroke="#6FCBD5"/>
<line x1="14.2493" y1="14.375" x2="16.4993" y2="14.375" stroke="#6FCBD5"/>
<line x1="7.49939" y1="16.625" x2="9.74939" y2="16.625" stroke="#6FCBD5"/>
<line x1="10.8743" y1="16.625" x2="13.1243" y2="16.625" stroke="#6FCBD5"/>
<line x1="14.2493" y1="16.625" x2="16.4993" y2="16.625" stroke="#6FCBD5"/>
</svg>
