<svg width="24" height="24" viewBox="0 0 24 24" fill="none" xmlns="http://www.w3.org/2000/svg">
<path fill-rule="evenodd" clip-rule="evenodd" d="M10.5908 6.00812C8.31357 6.25589 6.3376 7.10459 4.64571 8.56162C3.96743 9.14577 3.13135 10.0934 2.60659 10.8728C2.30296 11.3238 2 11.8849 2 11.9963C2 12.1892 2.5513 13.0959 3.09706 13.8005C3.46886 14.2805 4.2017 15.0552 4.64571 15.4376C6.19748 16.774 7.98689 17.5997 10.0342 17.9241C10.722 18.0331 12.3731 18.0229 13.0771 17.9053C14.9716 17.589 16.5845 16.8651 18.1002 15.6509C18.6154 15.2382 19.4818 14.3498 19.9047 13.8005C20.4497 13.0927 21 12.1879 21 11.9996C21 11.8114 20.4497 10.9066 19.9047 10.1988C19.4788 9.64561 18.6147 8.76058 18.0867 8.33673C16.8665 7.35726 15.5761 6.70084 14.1164 6.31708C13.227 6.08324 12.7119 6.01742 11.667 6.00393C11.1567 5.99736 10.6725 5.99922 10.5908 6.00812ZM12.3422 6.85737C15.3724 7.12909 18.1504 8.8589 19.8538 11.5346L20.1499 11.9996L19.8538 12.4647C18.4015 14.7461 16.1552 16.3577 13.6152 16.9405C12.8512 17.1159 12.4111 17.1611 11.4814 17.1598C10.7571 17.1587 10.4938 17.1425 10.0713 17.0728C7.82209 16.7017 5.9592 15.707 4.39025 14.0394C3.79413 13.4058 3.4823 13.0085 3.0922 12.3856L2.84988 11.9986L3.0797 11.633C3.85551 10.3987 4.96946 9.24294 6.1377 8.46014C7.96734 7.23417 10.1775 6.66324 12.3422 6.85737ZM11.0107 8.23992C10.2212 8.37381 9.54192 8.73909 8.99244 9.32518C8.53173 9.81652 8.19749 10.4457 8.04226 11.114C7.92722 11.6093 7.92722 12.39 8.04226 12.8853C8.37465 14.3161 9.43193 15.3993 10.8135 15.7245C11.1723 15.809 11.9392 15.7901 12.3304 15.6872C13.6706 15.3344 14.6875 14.2055 14.9924 12.7318C15.0716 12.3491 15.0539 11.5312 14.9574 11.114C14.803 10.4467 14.4686 9.81683 14.0076 9.32518C13.5504 8.83752 12.9533 8.4751 12.3495 8.31876C11.993 8.22646 11.3228 8.18696 11.0107 8.23992ZM12.1832 9.15242C13.3992 9.46755 14.2492 10.6389 14.2492 11.9996C14.2492 13.6428 13.0406 14.9318 11.5 14.9318C9.95595 14.9318 8.75079 13.6464 8.75079 11.9996C8.75079 10.2833 10.0764 8.95682 11.6855 9.06289C11.7978 9.07029 12.0217 9.11058 12.1832 9.15242Z" fill="#817B77"/>
</svg>
