<svg width="189" height="160" viewBox="0 0 189 160" fill="none" xmlns="http://www.w3.org/2000/svg">
<path d="M68.3061 50.4197C66.9452 47.6513 65.3281 45.0296 63.5437 42.5235C63.5124 43.0637 63.4632 43.5999 63.3946 44.1315C64.7885 46.6271 66.0057 49.1906 67.0062 51.7524C67.0406 51.8407 67.0753 51.9307 67.1079 52.0189C67.3175 52.5699 67.5192 53.1403 67.7048 53.7259C69.0717 58.0409 69.5953 63.1717 66.45 66.674C63.3496 70.1279 57.7363 69.1771 53.513 67.8853C52.9219 67.7053 52.3597 67.5186 51.8333 67.3343C51.7344 67.2996 51.6357 67.2651 51.5416 67.2325C48.9033 66.2937 46.352 65.0676 43.8912 63.6408C43.4249 63.7005 42.9539 63.7456 42.4765 63.7782C45.2047 65.702 48.0597 67.4451 51.0718 68.9437C51.5805 69.1984 52.0949 69.4438 52.6137 69.6835C52.6841 69.7161 52.7574 69.7476 52.829 69.7825C58.034 72.1417 65.943 74.4357 70.3445 69.529C74.1287 65.3159 71.8326 58.1649 69.5639 53.0774C69.2676 52.4128 68.9716 51.7854 68.6906 51.2027C68.5587 50.932 68.4304 50.6697 68.3061 50.4197Z" fill="#333333"/>
<path d="M18.3631 39.8526C18.3962 39.2597 18.453 38.6757 18.5323 38.0994C17.3177 36.0091 16.2184 33.8531 15.2657 31.6194C15.0864 31.1958 14.9084 30.76 14.7379 30.3109C14.5301 29.7703 14.3326 29.2135 14.1516 28.6442C12.8132 24.476 12.2747 19.6925 14.874 16.0901C17.8519 11.9757 24.1557 13.0911 28.4062 14.3593C28.6576 14.434 28.9044 14.5104 29.1406 14.5855C29.4741 14.6899 29.8032 14.8041 30.1352 14.9178C32.9036 15.8821 35.5719 17.177 38.1309 18.6938C38.5871 18.6383 39.0476 18.595 39.5114 18.5648C37.3755 17.0437 35.1608 15.6228 32.8426 14.3292C32.2337 13.9892 31.5906 13.642 30.919 13.2991C30.3446 13.0058 29.7523 12.7168 29.1434 12.4367C24.0704 10.1053 17.901 8.44668 13.1166 11.2076C7.33603 14.5405 10.0145 23.4757 11.8664 28.2178C12.0085 28.5801 12.1564 28.938 12.3061 29.2958C12.5676 29.9094 12.8416 30.5205 13.1286 31.1236C14.5805 34.1812 16.3668 37.0858 18.3631 39.8526Z" fill="#333333"/>
<path d="M13.4389 50.4197C14.8014 47.6513 16.4167 45.0296 18.2025 42.5235C18.2339 43.0637 18.2834 43.5999 18.3521 44.1315C16.9581 46.6271 15.741 49.1906 14.7404 51.7524C14.7057 51.8407 14.6713 51.9307 14.6387 52.0189C14.4275 52.5699 14.227 53.1403 14.0418 53.7259C12.675 58.0409 12.1497 63.1717 15.295 66.674C18.3954 70.1279 24.0103 69.1771 28.2325 67.8853C28.8229 67.7053 29.3869 67.5186 29.9117 67.3343C30.0105 67.2996 30.1093 67.2651 30.205 67.2325C32.8417 66.2937 35.3947 65.0676 37.855 63.6408C38.3218 63.7005 38.7928 63.7456 39.2684 63.7782C36.542 65.702 33.6867 67.4451 30.6743 68.9437C30.1643 69.1984 29.6501 69.4438 29.1312 69.6835C29.0625 69.7161 28.9874 69.7476 28.9171 69.7825C23.7127 72.1417 15.8037 74.4357 11.4005 69.529C7.61796 65.3159 9.91241 58.1649 12.181 53.0774C12.479 52.4128 12.775 51.7854 13.0561 51.2027C13.188 50.932 13.3151 50.6697 13.4389 50.4197Z" fill="#333333"/>
<path d="M63.3822 39.8526C63.3496 39.2597 63.2911 38.6757 63.2148 38.0994C64.4278 36.0091 65.5257 33.8531 66.4796 31.6194C66.6608 31.1958 66.8387 30.76 67.0093 30.3109C67.2156 29.7703 67.4116 29.2135 67.5943 28.6442C68.9344 24.476 69.4694 19.6925 66.8718 16.0901C63.894 11.9757 57.5898 13.0911 53.3392 14.3593C53.0865 14.434 52.8415 14.5104 52.6049 14.5855C52.2728 14.6899 51.9422 14.8041 51.6133 14.9178C48.8419 15.8821 46.1739 17.177 43.6132 18.6938C43.16 18.6383 42.6995 18.595 42.2357 18.5648C44.3686 17.0437 46.5864 15.6228 48.9016 14.3292C49.5121 13.9892 50.1566 13.642 50.8251 13.2991C51.3996 13.0058 51.9948 12.7168 52.6019 12.4367C57.6767 10.1053 63.8448 8.44668 68.6305 11.2076C74.4097 14.5405 71.7296 23.4757 69.8793 28.2178C69.7386 28.5801 69.5893 28.938 69.4398 29.2958C69.1782 29.9094 68.9043 30.5205 68.6185 31.1236C67.1636 34.1812 65.3792 37.0858 63.3822 39.8526Z" fill="#333333"/>
<path d="M53.7691 67.0315C54.7607 64.1102 55.4712 61.1129 55.9813 58.0779C55.5755 58.437 55.1614 58.7798 54.7366 59.1062C53.9602 61.8616 53.0106 64.5324 51.9084 67.0551C51.8698 67.1405 51.8308 67.2274 51.7934 67.3144C51.5526 67.8534 51.2907 68.3984 51.0083 68.9434C48.9279 72.9617 45.6749 76.9627 40.974 77.2127C36.3449 77.4598 33.0457 72.8137 30.9729 68.9102C30.6813 68.3654 30.4163 67.834 30.1741 67.3323C30.1276 67.2393 30.083 67.1421 30.0394 67.0521C28.837 64.5218 27.8975 61.848 27.1663 59.0974C26.794 58.8101 26.4289 58.5091 26.0698 58.1946C26.6371 61.4855 27.4253 64.7392 28.4974 67.9312C28.6785 68.4702 28.8684 69.0078 29.066 69.5452C29.0926 69.6199 29.1228 69.6921 29.1495 69.7654C31.1629 75.1194 35.1349 82.3421 41.713 81.9874C47.363 81.6865 50.7929 75.004 52.7821 69.8011C53.0407 69.1216 53.2739 68.4688 53.4879 67.8578C53.5868 67.5717 53.6792 67.2962 53.7691 67.0315Z" fill="#333333"/>
<path d="M25.9168 24.2061C26.3594 23.8109 26.8127 23.4366 27.2761 23.0848C27.8924 20.7492 28.6403 18.4447 29.5421 16.1915C29.7142 15.7649 29.8977 15.3291 30.0923 14.8919C30.3303 14.3635 30.5845 13.8305 30.8551 13.2987C32.8549 9.40462 35.8522 5.64175 40.2355 4.9352C45.2475 4.13253 48.9164 9.38336 51.0265 13.2885C51.1523 13.5207 51.272 13.7481 51.3873 13.9679C51.5458 14.2781 51.7027 14.5911 51.8523 14.9068C53.1327 17.5496 54.1032 20.3537 54.8404 23.2389C55.2037 23.5206 55.5586 23.8169 55.9071 24.1239C55.4729 21.5366 54.9095 18.9629 54.1841 16.4087C53.9955 15.7365 53.783 15.0358 53.5512 14.3186C53.354 13.7044 53.1387 13.0801 52.9037 12.4499C50.9654 7.2125 47.7752 1.6727 42.4388 0.236849C36.0002 -1.49861 31.5821 6.71677 29.5421 11.3807C29.3865 11.7355 29.2385 12.095 29.0935 12.4545C28.8421 13.0729 28.6043 13.6972 28.3813 14.3274C27.2493 17.5195 26.4594 20.8376 25.9168 24.2061Z" fill="#333333"/>
<path d="M66.9579 28.3471C64.0385 27.3561 61.0459 26.6448 58.0129 26.1342C58.3732 26.54 58.7157 26.9547 59.0431 27.3786C61.792 28.157 64.4616 29.1077 66.9803 30.2112C67.0656 30.2503 67.1537 30.2892 67.2394 30.3266C67.7778 30.5677 68.3222 30.8282 68.8695 31.1127C72.8822 33.1952 76.8772 36.4517 77.1282 41.156C77.3749 45.7915 72.7343 49.0947 68.8364 51.1696C68.2892 51.4599 67.7596 51.7264 67.2585 51.9693C67.1643 52.0156 67.0686 52.0605 66.9791 52.1037C64.4514 53.3078 61.7801 54.2479 59.0311 54.9787C58.7441 55.3531 58.4436 55.7181 58.1294 56.0776C61.4181 55.5101 64.6681 54.7212 67.8566 53.6461C68.395 53.4649 68.9323 53.2747 69.4689 53.0787C69.5423 53.0503 69.6156 53.0219 69.6907 52.9946C75.0359 50.9795 82.2508 47.0028 81.8964 40.4179C81.5959 34.7613 74.9222 31.3283 69.7251 29.3368C69.0458 29.0779 68.3921 28.8429 67.7838 28.6303C67.498 28.5313 67.2228 28.4385 66.9579 28.3471Z" fill="#333333"/>
<path d="M24.1786 56.2304C23.7839 55.7873 23.413 55.3336 23.0585 54.8693C20.7251 54.2526 18.4251 53.504 16.1725 52.6013C15.7461 52.4289 15.3124 52.2446 14.8757 52.0498C14.3479 51.8134 13.8138 51.5575 13.2846 51.285C9.39272 49.2849 5.63601 46.2824 4.92678 41.897C4.12677 36.8783 9.37193 33.2072 13.2724 31.0949C13.5042 30.9688 13.7315 30.849 13.9527 30.7336C14.2626 30.5719 14.5752 30.4196 14.8893 30.2651C17.5289 28.9863 20.3304 28.0149 23.2124 27.2751C23.4935 26.9126 23.7911 26.5566 24.0977 26.2077C21.5119 26.6418 18.9423 27.2064 16.3892 27.9337C15.7177 28.1227 15.0178 28.3323 14.3012 28.5644C13.6881 28.7647 13.0663 28.9803 12.4363 29.2125C7.20342 31.156 1.66946 34.3496 0.2365 39.6887C-1.49663 46.1374 6.70941 50.5589 11.3671 52.5995C11.7215 52.7565 12.0805 52.9051 12.4393 53.0515C13.057 53.302 13.6823 53.5396 14.3118 53.7628C17.4991 54.8947 20.8133 55.6866 24.1786 56.2304Z" fill="#333333"/>
<path d="M31.2981 33.6184V37.2475C32.2448 37.2026 32.6099 36.5634 32.6099 35.4132C32.6099 34.283 32.2448 33.663 31.2981 33.6184ZM30.0419 37.2475V33.6184C29.0845 33.663 28.7284 34.283 28.7284 35.4225C28.7284 36.5634 29.0845 37.2026 30.0419 37.2475ZM31.2981 33.0611C32.8641 33.0972 33.9482 33.8998 33.9482 35.4132C33.9482 36.9271 32.8641 37.776 31.2981 37.8133V38.4229H30.0419V37.8133C28.4657 37.776 27.399 36.9377 27.399 35.4225C27.399 33.9087 28.4562 33.0972 30.0419 33.0611V32.4954H31.2981V33.0611Z" fill="#333333"/>
<path d="M36.0167 33.1533V38.4236H34.7601V32.4959H38.0568V33.1533H36.0167Z" fill="#333333"/>
<path d="M39.9061 35.3406V37.8307H40.3068C41.0172 37.8307 41.345 37.5205 41.345 36.5549C41.345 35.5865 40.9811 35.3406 40.2978 35.3406H39.9061ZM41.9639 33.1533H39.9061V34.7655H40.2876C41.7545 34.7655 42.6474 35.3228 42.6474 36.5176C42.6474 37.7034 41.8652 38.4236 40.3248 38.4236H38.6393V32.4959H41.9639V33.1533Z" fill="#333333"/>
<path d="M48.1313 38.4229H46.8752V35.7235H44.8244V38.4229H43.5665V32.4954H44.8244V35.0856H46.8752V32.4954H48.1313V38.4229Z" fill="#333333"/>
<path d="M52.0397 35.797L53.1149 32.4954H53.9526L52.3764 36.5995C51.8303 37.9861 51.2008 38.5233 50.3346 38.5233C49.7347 38.5233 49.4342 38.2959 49.4342 38.2959L49.5974 37.5306C49.5974 37.5306 49.889 37.7208 50.3346 37.7208C50.7625 37.7208 51.0647 37.613 51.3742 37.1011L48.9335 32.4954H50.408L52.0113 35.797H52.0397Z" fill="#333333"/>
<path d="M26.1657 47.956H24.9079V45.2563H22.8589V47.956H21.6009V42.0299H22.8589V44.6189H24.9079V42.0299H26.1657V47.956Z" fill="#333333"/>
<path d="M28.7158 47.3012H30.6287V42.0291H31.8848V47.3012H32.6238L32.3682 49.5526H31.6847L31.4753 47.9552H27.4579V42.0291H28.7158V47.3012Z" fill="#333333"/>
<path d="M40.0652 47.956H38.809V42.6857H36.8961V47.956H35.6381V42.0299H40.0652V47.956Z" fill="#333333"/>
<path d="M41.2131 42.3486C41.2131 42.3486 41.9882 41.9382 42.8526 41.9382C44.1193 41.9382 44.8116 42.5582 44.8116 43.4972C44.8116 44.2368 44.3377 44.6652 43.8632 44.9014C44.5022 45.0573 44.9939 45.4388 44.9939 46.288C44.9939 47.3466 44.0744 48.0579 42.7432 48.0579C41.1503 48.0579 40.7658 47.1085 40.7658 47.1085L41.1503 46.6339C41.1503 46.6339 41.5947 47.3822 42.5893 47.3822C43.1727 47.3822 43.5809 47.0995 43.5809 46.2698C43.5809 45.4481 43.2804 45.2308 42.7898 45.2308L41.9147 45.3043V44.6018L42.8721 44.6842C43.1621 44.674 43.4715 44.382 43.4715 43.5629C43.4715 42.8414 43.2159 42.5749 42.6059 42.5749C42.042 42.5749 41.3314 42.9686 41.3314 42.9686L41.2131 42.3486Z" fill="#333333"/>
<path d="M48.3823 42.622C47.3893 42.622 46.9154 43.2237 46.9154 44.9923C46.9154 46.7634 47.4343 47.3729 48.4467 47.3729C49.4189 47.3729 49.9573 46.524 49.9573 46.524L50.3578 46.9624C50.3578 46.9624 49.7928 48.057 48.2732 48.057C46.4499 48.057 45.5316 46.8712 45.5316 45.0374C45.5316 43.1686 46.5232 41.9378 48.2267 41.9378C49.1645 41.9378 50.0484 42.4034 50.0484 42.4034L49.9213 43.0697C49.9213 43.0697 49.0555 42.622 48.3823 42.622Z" fill="#333333"/>
<path d="M52.2983 42.622V45.5225H52.735C53.3018 45.5225 53.6291 45.2211 53.6291 44.0892C53.6291 42.9679 53.309 42.622 52.735 42.622H52.2983ZM51.0418 42.0291H52.8533C54.1663 42.0291 54.9858 42.6759 54.9858 44.0339C54.9858 45.5491 53.8386 46.106 52.8829 46.106H52.2983V47.9569H51.0418V42.0291Z" fill="#333333"/>
<path d="M59.7223 47.956H58.4555V45.5322H58.4453C58.4453 45.5322 58.0365 45.9049 57.0992 45.9049C55.9503 45.9049 55.5496 45.1295 55.5496 44.135V42.0299H56.8178V43.9809C56.8178 44.9375 57.0438 45.1757 57.5644 45.1757C58.0188 45.1757 58.3749 44.9932 58.4555 44.9465V42.0299H59.7223V47.956Z" fill="#333333"/>
<path d="M7.81178 118.951H5.65977V114.333H2.15022V118.951H0V108.809H2.15022V113.24H5.65977V108.809H7.81178V118.951Z" fill="#333333"/>
<path d="M13.1599 110.353L11.6631 115.128H14.5767L13.1908 110.353H13.1599ZM14.8748 108.809L18.0234 118.951H15.7449L14.8748 116.113H11.3522L10.4313 118.951H9.12189L12.4876 108.809H14.8748Z" fill="#333333"/>
<path d="M23.4808 114.457L25.3221 108.808H26.7537L24.0577 115.831C23.122 118.203 22.0469 119.125 20.5653 119.125C19.5383 119.125 19.0228 118.733 19.0228 118.733L19.3009 117.421C19.3009 117.421 19.8035 117.75 20.5653 117.75C21.2986 117.75 21.8119 117.562 22.3428 116.687L18.1653 108.808H20.6911L23.4354 114.457H23.4808Z" fill="#333333"/>
<path d="M34.8455 118.951H32.6798V114.802H32.665C32.665 114.802 31.9619 115.442 30.3563 115.442C28.3912 115.442 27.7061 114.113 27.7061 112.412V108.809H29.8735V112.149C29.8735 113.787 30.2652 114.192 31.1527 114.192C31.9317 114.192 32.5386 113.88 32.6798 113.802V108.809H34.8455V118.951Z" fill="#333333"/>
<path d="M44.8708 118.951H42.7206V114.333H39.213V118.951H37.061V108.809H39.213V113.24H42.7206V108.809H44.8708V118.951Z" fill="#333333"/>
<path d="M57.2357 118.951H55.0861V108.809H57.2357V118.951ZM49.237 113.678V117.936H49.986C51.1997 117.936 51.7178 117.328 51.7178 115.751C51.7178 114.161 51.1388 113.678 49.9705 113.678H49.237ZM47.0876 108.809H49.237V112.693H49.9705C52.4641 112.693 53.9457 113.645 53.9457 115.69C53.9457 117.721 52.6665 118.951 50.0317 118.951H47.0876V108.809Z" fill="#333333"/>
<path d="M64.5325 106.499C64.5325 106.326 64.4713 106.185 64.4713 106.185V106L66.0924 106.139C66.0924 106.139 66.2144 108.058 63.6122 108.058C61.0246 108.058 61.1487 106.139 61.1487 106.139L62.7697 106V106.185C62.7697 106.185 62.7092 106.326 62.7092 106.499C62.7092 106.763 62.8633 107.106 63.6122 107.106C64.3777 107.106 64.5325 106.763 64.5325 106.499ZM67.5874 118.952H65.4372V112.398L65.531 111.271H65.5138L61.6015 118.61L61.4794 118.952H59.4519V108.81H61.6015V115.534L61.4947 116.547H61.5231L65.4527 109.152L65.5921 108.81H67.5874V118.952Z" fill="#333333"/>
<path d="M75.7435 117.828H79.016V108.808H81.168V117.828H82.4301L81.9927 121.684H80.8245L80.4674 118.952H73.5912V108.808H75.7435V117.828Z" fill="#333333"/>
<path d="M90.1016 118.951H83.8023V108.809H89.8814V109.931H85.9563V113.272H89.4164V114.366H85.9563V117.827H90.1016V118.951Z" fill="#333333"/>
<path d="M99.596 118.951H97.4458V114.333H93.9382V118.951H91.7862V108.809H93.9382V113.24H97.4458V108.809H99.596V118.951Z" fill="#333333"/>
<path d="M108.437 109.932H105.724V118.952H103.559V109.932H100.83V108.808H108.437V109.932Z" fill="#333333"/>
<path d="M111.82 109.821V114.783H112.571C113.537 114.783 114.099 114.272 114.099 112.335C114.099 110.414 113.55 109.821 112.571 109.821H111.82ZM109.67 108.809H112.771C115.017 108.809 116.42 109.915 116.42 112.241C116.42 114.833 114.455 115.784 112.819 115.784H111.82V118.951H109.67V108.809Z" fill="#333333"/>
<path d="M7.0322 138.107H5.84609V128.715H1.45076V138.107H0.267273V127.965H7.0322V138.107Z" fill="#333333"/>
<path d="M10.976 128.652V133.895H12.0831C13.2692 133.895 14.266 133.302 14.266 131.226C14.266 129.416 13.4413 128.652 12.0986 128.652H10.976ZM9.7923 127.965H12.2226C14.266 127.965 15.5126 129.024 15.5126 131.178C15.5126 133.705 13.8152 134.55 12.2552 134.55H10.976V138.107H9.7923V127.965Z" fill="#333333"/>
<path d="M20.9547 128.573C18.992 128.573 17.8842 130.15 17.8842 133.052C17.8842 135.97 18.9746 137.515 20.9547 137.515C22.95 137.515 24.0577 135.97 24.0577 133.052C24.0577 130.15 22.9345 128.573 20.9547 128.573ZM20.9547 138.262C18.2258 138.262 16.6204 136.281 16.6204 133.052C16.6204 129.836 18.2258 127.823 20.9547 127.823C23.6987 127.823 25.3196 129.836 25.3196 133.052C25.3196 136.281 23.6987 138.262 20.9547 138.262Z" fill="#333333"/>
<path d="M28.5318 132.708V137.42H29.7327C31.4147 137.42 32.2574 136.672 32.2574 135.002C32.2574 133.349 31.3215 132.708 29.7007 132.708H28.5318ZM32.4615 128.713H28.5318V132.053H29.7007C32.0224 132.053 33.4583 132.989 33.4583 134.971C33.4583 136.936 32.2265 138.108 29.779 138.108H27.3457V127.964H32.4615V128.713Z" fill="#333333"/>
<path d="M41.9083 127.964V138.107H40.74V128.714H37.7781C37.761 135.018 36.7013 138.216 34.9718 138.216C34.519 138.216 34.3341 138.124 34.3341 138.124L34.3778 137.281C34.3778 137.281 34.5493 137.344 34.7695 137.344C36.203 137.344 36.9672 134.347 36.9672 127.964H41.9083Z" fill="#333333"/>
<path d="M50.4694 138.107H44.6684V127.965H50.1258V128.715H45.8545V132.616H49.7668V133.334H45.8545V137.36H50.4694V138.107Z" fill="#333333"/>
<path d="M62.4735 138.107H61.32L61.2719 129.416H61.2565L57.7493 138.107H56.8008L53.2732 129.416L53.2449 138.107H52.3857L52.4333 127.965L52.464 128.011L52.4486 127.965H53.8999L57.4689 136.656H57.486L61.0541 127.965H62.4271L62.4735 138.107Z" fill="#333333"/>
<path d="M68.2276 128.619C68.2276 128.619 69.3027 127.825 70.7214 127.825C72.671 127.825 73.6524 128.84 73.6524 130.384C73.6524 131.678 72.8105 132.476 72.0161 132.863C73.1843 133.113 73.996 133.848 73.996 135.299C73.996 137.045 72.7037 138.263 70.5974 138.263C68.0883 138.263 67.5098 136.673 67.5098 136.673L67.9471 136.126C67.9471 136.126 68.554 137.499 70.471 137.499C71.8766 137.499 72.7037 136.703 72.7037 135.268C72.7037 133.832 71.9532 133.255 70.7369 133.255L69.2873 133.316V132.567L70.8152 132.63C71.5023 132.614 72.438 131.913 72.438 130.478C72.438 129.228 71.8292 128.559 70.5363 128.559C69.3502 128.559 68.3671 129.291 68.3671 129.291L68.2276 128.619Z" fill="#333333"/>
<path d="M78.034 128.713C77.9885 133.473 77.5055 135.751 76.7393 137.361H81.1976V128.713H78.034ZM82.3665 127.964V137.361H83.5526L83.365 140.744H82.6015L82.4294 138.106H76.117L75.8339 140.744H75.1339L75.0556 137.361H75.8975C76.7241 135.721 77.2076 133.316 77.2076 127.964H82.3665Z" fill="#333333"/>
<path d="M88.9626 128.573C86.9999 128.573 85.8928 130.15 85.8928 133.052C85.8928 135.97 86.9825 137.515 88.9626 137.515C90.9579 137.515 92.0674 135.97 92.0674 133.052C92.0674 130.15 90.9431 128.573 88.9626 128.573ZM88.9626 138.262C86.2364 138.262 84.6308 136.281 84.6308 133.052C84.6308 129.836 86.2364 127.823 88.9626 127.823C91.7067 127.823 93.3301 129.836 93.3301 133.052C93.3301 136.281 91.7067 138.262 88.9626 138.262Z" fill="#333333"/>
<path d="M96.5398 128.652V133.895H97.6476C98.8337 133.895 99.8298 133.302 99.8298 131.226C99.8298 129.416 99.0051 128.652 97.665 128.652H96.5398ZM95.3563 127.965H97.7888C99.8298 127.965 101.079 129.024 101.079 131.178C101.079 133.705 99.3776 134.55 97.8197 134.55H96.5398V138.107H95.3563V127.965Z" fill="#333333"/>
<path d="M106.519 128.573C104.556 128.573 103.449 130.15 103.449 133.052C103.449 135.97 104.538 137.515 106.519 137.515C108.514 137.515 109.621 135.97 109.621 133.052C109.621 130.15 108.499 128.573 106.519 128.573ZM106.519 138.262C103.79 138.262 102.184 136.281 102.184 133.052C102.184 129.836 103.79 127.823 106.519 127.823C109.265 127.823 110.883 129.836 110.883 133.052C110.883 136.281 109.265 138.262 106.519 138.262Z" fill="#333333"/>
<path d="M114.096 133.191V137.419H115.437C117.121 137.419 117.978 136.703 117.978 135.191C117.978 133.783 117.121 133.191 115.998 133.191H114.096ZM115.937 132.553C116.466 132.553 117.525 132.148 117.525 130.571C117.525 129.244 116.637 128.652 115.421 128.652H114.096V132.553H115.937ZM112.913 127.965H115.469C117.558 127.965 118.666 129.024 118.666 130.492C118.666 131.707 117.915 132.411 117.199 132.786C118.35 133.097 119.147 133.925 119.147 135.236C119.147 137.031 117.993 138.107 115.484 138.107H112.913V127.965Z" fill="#333333"/>
<path d="M122.36 132.708V137.42H123.589C125.26 137.42 126.085 136.642 126.085 135.002C126.085 133.379 125.167 132.708 123.559 132.708H122.36ZM121.174 127.964H122.36V132.053H123.559C125.868 132.053 127.287 132.989 127.287 134.971C127.287 136.936 126.07 138.108 123.622 138.108H121.174V127.964Z" fill="#333333"/>
<path d="M131.667 133.287H133.693V128.652H131.667C130.825 128.652 129.859 129.462 129.859 130.991C129.859 132.507 130.747 133.287 131.667 133.287ZM134.863 138.107H133.693V134.021H131.682L129.796 138.107H128.596L130.686 133.877C129.639 133.551 128.69 132.629 128.69 131.039C128.69 128.994 130.14 127.965 131.621 127.965H134.863V138.107Z" fill="#333333"/>
<path d="M144.856 128.605C142.877 128.605 141.632 130.101 141.632 133.099C141.632 136.063 142.907 137.483 144.95 137.483C146.819 137.483 147.757 135.954 147.757 135.954L148.192 136.455C148.192 136.455 147.211 138.263 144.811 138.263C142.004 138.263 140.368 136.329 140.368 133.129C140.368 129.883 142.082 127.825 144.732 127.825C146.339 127.825 147.712 128.681 147.712 128.681L147.57 129.43C147.57 129.43 146.229 128.605 144.856 128.605Z" fill="#333333"/>
<path d="M155.585 138.107H149.784V127.965H155.242V128.715H150.97V132.616H154.883V133.334H150.97V137.36H155.585V138.107Z" fill="#333333"/>
<path d="M167.589 138.107H166.436L166.388 129.416H166.373L162.865 138.107H161.917L158.389 129.416L158.361 138.107H157.501L157.549 127.965L157.58 128.011L157.564 127.965H159.016L162.585 136.656H162.599L166.17 127.965H167.543L167.589 138.107Z" fill="#333333"/>
<path d="M171.518 132.708V137.42H172.749C174.418 137.42 175.245 136.642 175.245 135.002C175.245 133.379 174.325 132.708 172.719 132.708H171.518ZM170.335 127.964H171.518V132.053H172.719C175.025 132.053 176.446 132.989 176.446 134.971C176.446 136.936 175.228 138.108 172.78 138.108H170.335V127.964Z" fill="#333333"/>
<path d="M185.689 138.107H184.521V130.024L184.584 129.446H184.568L179.658 137.937L179.577 138.107H178.457V127.965H179.642V136.127L179.564 136.641H179.577L184.506 128.135L184.584 127.965H185.689V138.107Z" fill="#333333"/>
<path d="M7.49975 157.263H6.33084V149.179L6.39196 148.6H6.37652L1.46809 157.093L1.38714 157.263H0.266541V147.121H1.45002V155.28L1.3717 155.796H1.38714L6.31603 147.29L6.39196 147.121H7.49975V157.263Z" fill="#333333"/>
<path d="M15.2492 147.807V153.048H16.3546C17.5407 153.048 18.5392 152.458 18.5392 150.382C18.5392 148.572 17.7121 147.807 16.3718 147.807H15.2492ZM14.0631 147.121H16.4958C18.5392 147.121 19.7838 148.182 19.7838 150.334C19.7838 152.863 18.0866 153.706 16.5267 153.706H15.2492V157.263H14.0631V147.121Z" fill="#333333"/>
<path d="M27.5968 157.263H21.7958V147.121H27.2532V147.87H22.9818V151.771H26.8961V152.49H22.9818V156.513H27.5968V157.263Z" fill="#333333"/>
<path d="M36.4663 157.263H35.2825V147.87H30.8874V157.263H29.7013V147.121H36.4663V157.263Z" fill="#333333"/>
<path d="M40.5994 147.807V153.048H41.7065C42.8926 153.048 43.8894 152.458 43.8894 150.382C43.8894 148.572 43.0623 147.807 41.722 147.807H40.5994ZM39.4133 147.121H41.846C43.8894 147.121 45.136 148.182 45.136 150.334C45.136 152.863 43.4366 153.706 41.8769 153.706H40.5994V157.263H39.4133V147.121Z" fill="#333333"/>
<path d="M50.763 147.728C48.8005 147.728 47.6952 149.306 47.6952 152.209C47.6952 155.126 48.7851 156.668 50.763 156.668C52.7603 156.668 53.868 155.126 53.868 152.209C53.868 149.306 52.7455 147.728 50.763 147.728ZM50.763 157.42C48.0361 157.42 46.4307 155.437 46.4307 152.209C46.4307 148.992 48.0361 146.979 50.763 146.979C53.509 146.979 55.1301 148.992 55.1301 152.209C55.1301 155.437 53.509 157.42 50.763 157.42Z" fill="#333333"/>
<path d="M59.3711 147.869C59.3254 152.628 58.8419 154.907 58.0764 156.515H62.5346V147.869H59.3711ZM63.7053 147.119V156.515H64.8888L64.7021 159.9H63.9403L63.7682 157.262H57.4541L57.171 159.9H56.4701L56.3918 156.515H57.2363C58.0609 154.877 58.5438 152.472 58.5438 147.119H63.7053Z" fill="#333333"/>
<path d="M67.2458 147.12L70.5184 153.69L72.9036 147.12H73.8393L70.9386 154.548C70.0658 156.748 69.1151 157.404 67.9465 157.404C67.0891 157.404 66.6542 157.092 66.6542 157.092L66.8239 156.265C66.8239 156.265 67.2458 156.561 67.9465 156.561C68.6495 156.561 69.2738 156.297 69.927 154.94L65.8728 147.12H67.2458Z" fill="#333333"/>
<path d="M75.7415 147.12H76.9269V152.644L78.1587 151.551L81.5727 147.12H82.5212L78.9685 151.647L83.0093 157.262H81.5253L78.0958 152.548L76.9269 153.533V157.262H75.7415V147.12Z" fill="#333333"/>
<path d="M86.2807 156.514H90.6785V147.121H91.8619V156.514H93.0326L92.8304 159.901H92.0643L91.8948 157.263H85.097V147.121H86.2807V156.514Z" fill="#333333"/>
<path d="M102.263 157.263H101.094V149.179L101.155 148.6H101.138L96.2308 157.093L96.1508 157.263H95.03V147.121H96.2136V155.28L96.1371 155.796H96.1508L101.079 147.29L101.155 147.121H102.263V157.263Z" fill="#333333"/>
<path d="M112.428 157.263H111.26V149.179L111.321 148.6H111.305L106.394 157.093L106.316 157.263H105.195V147.121H106.379V155.28L106.303 155.796H106.316L111.242 147.29L111.321 147.121H112.428V157.263Z" fill="#333333"/>
<path d="M124.853 157.263H123.684V152.972C123.684 152.972 122.796 153.675 121.112 153.675C119.302 153.675 118.603 152.597 118.603 150.88V147.121H119.772V150.708C119.772 152.286 120.318 152.862 121.534 152.862C122.733 152.862 123.575 152.349 123.684 152.27V147.121H124.853V157.263Z" fill="#333333"/>
<path d="M133.601 157.263H127.8V147.121H133.257V147.87H128.986V151.771H132.9V152.49H128.986V156.513H133.601V157.263Z" fill="#333333"/>
<path d="M142.143 147.12V157.262H140.974V147.869H138.013C137.998 154.173 136.936 157.373 135.206 157.373C134.754 157.373 134.568 157.28 134.568 157.28L134.615 156.436C134.615 156.436 134.786 156.5 135.006 156.5C136.44 156.5 137.201 153.503 137.201 147.12H142.143Z" fill="#333333"/>
<path d="M148.709 147.728C146.747 147.728 145.637 149.306 145.637 152.209C145.637 155.126 146.729 156.668 148.709 156.668C150.705 156.668 151.812 155.126 151.812 152.209C151.812 149.306 150.689 147.728 148.709 147.728ZM148.709 157.42C145.98 157.42 144.375 155.437 144.375 152.209C144.375 148.992 145.98 146.979 148.709 146.979C151.453 146.979 153.074 148.992 153.074 152.209C153.074 155.437 151.453 157.42 148.709 157.42Z" fill="#333333"/>
<path d="M156.473 152.349V156.575H157.814C159.498 156.575 160.355 155.858 160.355 154.346C160.355 152.939 159.498 152.349 158.375 152.349H156.473ZM158.314 151.708C158.843 151.708 159.903 151.303 159.903 149.726C159.903 148.399 159.015 147.807 157.799 147.807H156.473V151.708H158.314ZM155.288 147.121H157.846C159.933 147.121 161.043 148.182 161.043 149.648C161.043 150.865 160.292 151.569 159.576 151.942C160.727 152.255 161.524 153.081 161.524 154.39C161.524 156.187 160.37 157.263 157.862 157.263H155.288V147.121Z" fill="#333333"/>
<path d="M169.538 157.263H163.739V147.121H169.196V147.87H164.925V151.771H168.837V152.49H164.925V156.513H169.538V157.263Z" fill="#333333"/>
<path d="M171.643 147.12H172.829V152.644L174.059 151.551L177.475 147.12H178.423L174.871 151.647L178.909 157.262H177.427L173.998 152.548L172.829 153.533V157.262H171.643V147.12Z" fill="#333333"/>
<path d="M181.996 153.501H185.552L183.787 148.023L181.996 153.501ZM184.692 147.119L188.045 157.264H186.811L185.754 154.142H181.776L180.718 157.264H179.889L183.306 147.119H184.692Z" fill="#333333"/>
</svg>
