<svg width="240" height="69" viewBox="0 0 240 69" fill="none" xmlns="http://www.w3.org/2000/svg">
<path d="M56.7248 41.8709C55.5947 39.5719 54.2518 37.3947 52.7699 35.3135C52.7439 35.7621 52.7031 36.2074 52.6461 36.6489C53.8037 38.7214 54.8144 40.8502 55.6454 42.9776C55.6739 43.051 55.7027 43.1257 55.7298 43.199C55.9038 43.6565 56.0714 44.1303 56.2255 44.6165C57.3606 48.2 57.7955 52.4608 55.1835 55.3693C52.6087 58.2376 47.9472 57.448 44.4399 56.3752C43.9491 56.2258 43.4822 56.0707 43.045 55.9177C42.9629 55.8888 42.8809 55.8602 42.8028 55.8331C40.6118 55.0535 38.493 54.0353 36.4495 52.8504C36.0622 52.9 35.6711 52.9374 35.2747 52.9645C37.5403 54.5621 39.9112 56.0097 42.4127 57.2542C42.8351 57.4657 43.2622 57.6695 43.6931 57.8686C43.7516 57.8957 43.8124 57.9218 43.8719 57.9507C48.1944 59.9099 54.7624 61.8151 58.4176 57.7402C61.5602 54.2415 59.6534 48.3029 57.7694 44.078C57.5233 43.5261 57.2775 43.0051 57.0441 42.5212C56.9346 42.2964 56.828 42.0785 56.7248 41.8709Z" fill="#7C6757"/>
<path d="M15.2499 33.0955C15.2774 32.6031 15.3246 32.1182 15.3904 31.6396C14.3817 29.9037 13.4688 28.1132 12.6776 26.2582C12.5287 25.9064 12.3809 25.5445 12.2393 25.1716C12.0668 24.7226 11.9027 24.2602 11.7524 23.7875C10.6409 20.326 10.1938 16.3535 12.3524 13.3619C14.8254 9.9451 20.0603 10.8714 23.5902 11.9246C23.799 11.9866 24.0039 12.05 24.2001 12.1124C24.477 12.1991 24.7503 12.294 25.026 12.3884C27.325 13.1892 29.541 14.2645 31.6661 15.5242C32.0449 15.478 32.4273 15.4421 32.8125 15.417C31.0387 14.1538 29.1995 12.9739 27.2744 11.8996C26.7687 11.6172 26.2346 11.3289 25.677 11.0441C25.1999 10.8006 24.7081 10.5606 24.2024 10.3279C19.9895 8.39186 14.8661 7.01444 10.893 9.30725C6.09247 12.075 8.31684 19.4953 9.85473 23.4334C9.97273 23.7343 10.0956 24.0314 10.2199 24.3286C10.437 24.8381 10.6645 25.3457 10.9029 25.8465C12.1087 28.3856 13.592 30.7978 15.2499 33.0955Z" fill="#7C6757"/>
<path d="M11.1604 41.8709C12.2919 39.5719 13.6333 37.3947 15.1163 35.3135C15.1424 35.7621 15.1835 36.2074 15.2405 36.6489C14.0829 38.7214 13.0721 40.8502 12.2412 42.9776C12.2124 43.051 12.1838 43.1257 12.1568 43.199C11.9814 43.6565 11.8148 44.1303 11.6611 44.6165C10.526 48.2 10.0898 52.4608 12.7018 55.3693C15.2765 58.2376 19.9394 57.448 23.4457 56.3752C23.936 56.2258 24.4044 56.0707 24.8402 55.9177C24.9222 55.8888 25.0043 55.8602 25.0838 55.8331C27.2734 55.0535 29.3935 54.0353 31.4367 52.8504C31.8243 52.9 32.2155 52.9374 32.6104 52.9645C30.3463 54.5621 27.9751 56.0097 25.4735 57.2542C25.05 57.4657 24.623 57.6695 24.192 57.8686C24.135 57.8957 24.0726 57.9218 24.0143 57.9507C19.6922 59.9099 13.1242 61.8151 9.46762 57.7402C6.32637 54.2415 8.23179 48.3029 10.1157 44.078C10.3633 43.5261 10.6091 43.0051 10.8424 42.5212C10.952 42.2964 11.0576 42.0785 11.1604 41.8709Z" fill="#D6D4D2"/>
<path d="M52.6354 33.0955C52.6084 32.6031 52.5598 32.1182 52.4965 31.6396C53.5038 29.9037 54.4155 28.1132 55.2077 26.2582C55.3581 25.9064 55.5059 25.5445 55.6475 25.1716C55.8189 24.7226 55.9816 24.2602 56.1334 23.7875C57.2463 20.326 57.6905 16.3535 55.5334 13.3619C53.0605 9.9451 47.8251 10.8714 44.2953 11.9246C44.0854 11.9866 43.8819 12.05 43.6854 12.1124C43.4097 12.1991 43.1351 12.294 42.8619 12.3884C40.5604 13.1892 38.3448 14.2645 36.2183 15.5242C35.8419 15.478 35.4595 15.4421 35.0743 15.417C36.8456 14.1538 38.6873 12.9739 40.61 11.8996C41.117 11.6172 41.6522 11.3289 42.2074 11.0441C42.6845 10.8006 43.1788 10.5606 43.6829 10.3279C47.8973 8.39186 53.0196 7.01444 56.9939 9.30725C61.7933 12.075 59.5675 19.4953 58.031 23.4334C57.9141 23.7343 57.7902 24.0314 57.6659 24.3286C57.4487 24.8381 57.2213 25.3457 56.9839 25.8465C55.7757 28.3856 54.2938 30.7978 52.6354 33.0955Z" fill="#D6D4D2"/>
<path d="M44.6529 55.6662C45.4764 53.2402 46.0665 50.7511 46.49 48.2307C46.1531 48.5289 45.8091 48.8136 45.4564 49.0847C44.8117 51.3729 44.0231 53.5908 43.1077 55.6858C43.0757 55.7567 43.0432 55.8289 43.0122 55.9012C42.8122 56.3488 42.5947 56.8014 42.3602 57.254C40.6326 60.591 37.9311 63.9136 34.0273 64.1212C30.183 64.3264 27.4432 60.468 25.7219 57.2264C25.4797 56.7739 25.2596 56.3326 25.0585 55.916C25.0199 55.8388 24.9829 55.7581 24.9466 55.6833C23.9481 53.582 23.1679 51.3616 22.5606 49.0774C22.2515 48.8387 21.9483 48.5888 21.6501 48.3276C22.1212 51.0606 22.7757 53.7626 23.666 56.4133C23.8164 56.8609 23.9742 57.3074 24.1383 57.7537C24.1604 57.8157 24.1855 57.8757 24.2076 57.9366C25.8796 62.3828 29.1782 68.3809 34.6409 68.0864C39.333 67.8364 42.1814 62.287 43.8333 57.9662C44.048 57.4019 44.2417 56.8598 44.4194 56.3524C44.5015 56.1148 44.5783 55.886 44.6529 55.6662Z" fill="#CEB99E"/>
<path d="M21.5228 20.1018C21.8903 19.7737 22.2668 19.4628 22.6515 19.1706C23.1634 17.2311 23.7845 15.3173 24.5334 13.4461C24.6763 13.0918 24.8287 12.7299 24.9903 12.3668C25.1879 11.928 25.3991 11.4854 25.6237 11.0437C27.2845 7.80995 29.7736 4.68507 33.4137 4.09831C37.5759 3.43174 40.6227 7.79229 42.3751 11.0353C42.4796 11.2281 42.579 11.417 42.6747 11.5995C42.8064 11.8572 42.9367 12.117 43.0609 12.3793C44.1242 14.574 44.9301 16.9026 45.5424 19.2986C45.844 19.5326 46.1388 19.7786 46.4282 20.0335C46.0676 17.885 45.5997 15.7476 44.9973 13.6265C44.8407 13.0682 44.6642 12.4863 44.4717 11.8907C44.308 11.3807 44.1291 10.8622 43.934 10.3389C42.3243 5.9895 39.6751 1.38898 35.2435 0.196569C29.8965 -1.24464 26.2275 5.57782 24.5334 9.45096C24.4042 9.74564 24.2812 10.0442 24.1609 10.3427C23.9521 10.8562 23.7546 11.3747 23.5694 11.8981C22.6293 14.549 21.9734 17.3044 21.5228 20.1018Z" fill="#CEB99E"/>
<path d="M55.605 23.5408C53.1806 22.7178 50.6954 22.1271 48.1766 21.7031C48.4758 22.0401 48.7603 22.3845 49.0321 22.7365C51.315 23.3829 53.5319 24.1725 55.6237 25.0888C55.6945 25.1213 55.7676 25.1536 55.8388 25.1847C56.2859 25.3849 56.738 25.6012 57.1925 25.8375C60.5249 27.5669 63.8425 30.2713 64.0509 34.178C64.2559 38.0275 60.402 40.7707 57.165 42.4938C56.7106 42.7349 56.2708 42.9562 55.8547 43.1579C55.7764 43.1963 55.6969 43.2336 55.6227 43.2695C53.5235 44.2694 51.3051 45.0502 49.0222 45.6571C48.7839 45.9679 48.5343 46.271 48.2734 46.5696C51.0045 46.0983 53.7035 45.4432 56.3514 44.5503C56.7985 44.3999 57.2446 44.242 57.6903 44.0792C57.7513 44.0556 57.8121 44.032 57.8745 44.0093C62.3134 42.3359 68.305 39.0334 68.0107 33.565C67.7611 28.8675 62.219 26.0165 57.903 24.3627C57.3389 24.1477 56.796 23.9525 56.2909 23.776C56.0535 23.6938 55.825 23.6167 55.605 23.5408Z" fill="#A18A77"/>
<path d="M20.0791 46.6965C19.7513 46.3285 19.4433 45.9517 19.149 45.5662C17.2111 45.054 15.3011 44.4323 13.4305 43.6827C13.0764 43.5396 12.7162 43.3865 12.3535 43.2248C11.9152 43.0284 11.4717 42.8159 11.0322 42.5896C7.80018 40.9286 4.68042 38.4352 4.09144 34.7933C3.42708 30.6255 7.78291 27.5769 11.022 25.8227C11.2145 25.718 11.4033 25.6185 11.587 25.5227C11.8444 25.3884 12.104 25.2619 12.3648 25.1336C14.5569 24.0716 16.8833 23.2649 19.2768 22.6506C19.5101 22.3495 19.7573 22.0539 20.0119 21.7642C17.8646 22.1246 15.7306 22.5935 13.6104 23.1975C13.0528 23.3544 12.4715 23.5285 11.8764 23.7213C11.3673 23.8876 10.8509 24.0667 10.3277 24.2595C5.98208 25.8734 1.3864 28.5256 0.196402 32.9595C-1.24288 38.3147 5.57183 41.9866 9.43979 43.6812C9.73416 43.8116 10.0323 43.935 10.3302 44.0566C10.8432 44.2646 11.3625 44.4619 11.8853 44.6473C14.5322 45.5873 17.2844 46.2449 20.0791 46.6965Z" fill="#A18A77"/>
<path d="M25.9918 27.9183V30.9321C26.7781 30.8948 27.0812 30.364 27.0812 29.4089C27.0812 28.4702 26.7781 27.9554 25.9918 27.9183ZM24.9486 30.9321V27.9183C24.1536 27.9554 23.8579 28.4702 23.8579 29.4166C23.8579 30.364 24.1536 30.8948 24.9486 30.9321ZM25.9918 27.4555C27.2924 27.4855 28.1926 28.1521 28.1926 29.4089C28.1926 30.6661 27.2924 31.3711 25.9918 31.402V31.9082H24.9486V31.402C23.6397 31.3711 22.7538 30.6749 22.7538 29.4166C22.7538 28.1594 23.6318 27.4855 24.9486 27.4555V26.9858H25.9918V27.4555Z" fill="#BDB1A4"/>
<path d="M29.9098 27.5321V31.9088H28.8662V26.9861H31.6039V27.5321H29.9098Z" fill="#BDB1A4"/>
<path d="M33.1403 29.3486V31.4164H33.4731C34.0631 31.4164 34.3353 31.1588 34.3353 30.3569C34.3353 29.5527 34.0331 29.3486 33.4656 29.3486H33.1403ZM34.8493 27.5321H33.1403V28.871H33.4572C34.6754 28.871 35.4169 29.3338 35.4169 30.326C35.4169 31.3107 34.7673 31.9088 33.4881 31.9088H32.0883V26.9861H34.8493V27.5321Z" fill="#BDB1A4"/>
<path d="M39.9705 31.9082H38.9273V29.6665H37.2242V31.9082H36.1797V26.9858H37.2242V29.1368H38.9273V26.9858H39.9705V31.9082Z" fill="#BDB1A4"/>
<path d="M43.2165 29.7274L44.1094 26.9856H44.8051L43.4961 30.3938C43.0426 31.5453 42.5198 31.9915 41.8004 31.9915C41.3023 31.9915 41.0527 31.8026 41.0527 31.8026L41.1882 31.1671C41.1882 31.1671 41.4304 31.325 41.8004 31.325C42.1558 31.325 42.4068 31.2355 42.6638 30.8104L40.6369 26.9856H41.8614L43.1929 29.7274H43.2165Z" fill="#BDB1A4"/>
<path d="M21.7291 39.825H20.6845V37.583H18.9829V39.825H17.9382V34.9036H18.9829V37.0537H20.6845V34.9036H21.7291V39.825Z" fill="#BDB1A4"/>
<path d="M23.8471 39.2811H25.4356V34.9029H26.4788V39.2811H27.0925L26.8802 41.1508H26.3126L26.1387 39.8242H22.8025V34.9029H23.8471V39.2811Z" fill="#BDB1A4"/>
<path d="M33.2718 39.825H32.2286V35.4482H30.64V39.825H29.5953V34.9036H33.2718V39.825Z" fill="#BDB1A4"/>
<path d="M34.2253 35.1683C34.2253 35.1683 34.8689 34.8275 35.5868 34.8275C36.6387 34.8275 37.2137 35.3423 37.2137 36.1221C37.2137 36.7363 36.8201 37.092 36.4261 37.2882C36.9567 37.4177 37.3651 37.7345 37.3651 38.4397C37.3651 39.3188 36.6015 39.9095 35.4959 39.9095C34.1731 39.9095 33.8538 39.1211 33.8538 39.1211L34.1731 38.727C34.1731 38.727 34.5422 39.3484 35.3681 39.3484C35.8526 39.3484 36.1916 39.1137 36.1916 38.4246C36.1916 37.7422 35.942 37.5618 35.5347 37.5618L34.8079 37.6228V37.0394L35.603 37.1078C35.8438 37.0994 36.1008 36.8569 36.1008 36.1767C36.1008 35.5775 35.8885 35.3561 35.3819 35.3561C34.9136 35.3561 34.3235 35.6832 34.3235 35.6832L34.2253 35.1683Z" fill="#BDB1A4"/>
<path d="M40.1787 35.3952C39.3541 35.3952 38.9605 35.8949 38.9605 37.3636C38.9605 38.8344 39.3915 39.3406 40.2323 39.3406C41.0396 39.3406 41.4867 38.6356 41.4867 38.6356L41.8193 38.9997C41.8193 38.9997 41.3501 39.9087 40.0882 39.9087C38.574 39.9087 37.8114 38.9239 37.8114 37.401C37.8114 35.8492 38.6349 34.827 40.0496 34.827C40.8283 34.827 41.5624 35.2137 41.5624 35.2137L41.4568 35.767C41.4568 35.767 40.7378 35.3952 40.1787 35.3952Z" fill="#BDB1A4"/>
<path d="M43.4312 35.3953V37.8039H43.7939C44.2647 37.8039 44.5364 37.5536 44.5364 36.6136C44.5364 35.6825 44.2706 35.3953 43.7939 35.3953H43.4312ZM42.3878 34.9029H43.8922C44.9826 34.9029 45.6631 35.44 45.6631 36.5678C45.6631 37.8261 44.7104 38.2885 43.9168 38.2885H43.4312V39.8256H42.3878V34.9029Z" fill="#BDB1A4"/>
<path d="M49.5965 39.825H48.5445V37.8122H48.5361C48.5361 37.8122 48.1966 38.1216 47.4182 38.1216C46.4641 38.1216 46.1313 37.4777 46.1313 36.6518V34.9036H47.1845V36.5239C47.1845 37.3183 47.3722 37.5161 47.8045 37.5161C48.1818 37.5161 48.4776 37.3645 48.5445 37.3257V34.9036H49.5965V39.825Z" fill="#BDB1A4"/>
<path d="M90.3257 22.8783H88.5385V19.0433H85.624V22.8783H83.8384V14.456H85.624V18.1352H88.5385V14.456H90.3257V22.8783Z" fill="#7C6757"/>
<path d="M94.7672 15.738L93.5242 19.7032H95.9438L94.7929 15.738H94.7672ZM96.1913 14.4556L98.806 22.8779H96.9139L96.1913 20.5212H93.266L92.5013 22.8779H91.4138L94.2089 14.4556H96.1913Z" fill="#7C6757"/>
<path d="M103.338 19.1459L104.867 14.4551H106.056L103.817 20.2873C103.04 22.2575 102.147 23.0225 100.917 23.0225C100.064 23.0225 99.6357 22.6968 99.6357 22.6968L99.8666 21.6077C99.8666 21.6077 100.284 21.881 100.917 21.881C101.526 21.881 101.952 21.7251 102.393 20.9981L98.9235 14.4551H101.021L103.3 19.1459H103.338Z" fill="#7C6757"/>
<path d="M112.776 22.8783H110.977V19.4326H110.965C110.965 19.4326 110.381 19.9643 109.048 19.9643C107.416 19.9643 106.847 18.8608 106.847 17.4482V14.456H108.647V17.2291C108.647 18.5895 108.972 18.9259 109.709 18.9259C110.356 18.9259 110.86 18.6674 110.977 18.6023V14.456H112.776V22.8783Z" fill="#7C6757"/>
<path d="M121.101 22.8783H119.315V19.0433H116.402V22.8783H114.615V14.456H116.402V18.1352H119.315V14.456H121.101V22.8783Z" fill="#7C6757"/>
<path d="M131.37 22.8783H129.585V14.456H131.37V22.8783ZM124.727 18.4994V22.0353H125.349C126.357 22.0353 126.788 21.5308 126.788 20.2211C126.788 18.9008 126.307 18.4994 125.337 18.4994H124.727ZM122.943 14.456H124.727V17.6814H125.337C127.407 17.6814 128.638 18.4721 128.638 20.1705C128.638 21.8564 127.575 22.8783 125.387 22.8783H122.943V14.456Z" fill="#7C6757"/>
<path d="M137.43 12.5373C137.43 12.3942 137.379 12.2768 137.379 12.2768V12.1231L138.725 12.2388C138.725 12.2388 138.826 13.8325 136.665 13.8325C134.516 13.8325 134.619 12.2388 134.619 12.2388L135.966 12.1231V12.2768C135.966 12.2768 135.915 12.3942 135.915 12.5373C135.915 12.7564 136.043 13.0418 136.665 13.0418C137.301 13.0418 137.43 12.7564 137.43 12.5373ZM139.967 22.8789H138.181V17.436L138.259 16.5005H138.244L134.996 22.5949L134.894 22.8789H133.21V14.4566H134.996V20.0408L134.907 20.8816H134.93L138.194 14.7408L138.31 14.4566H139.967V22.8789Z" fill="#7C6757"/>
<path d="M146.739 21.9456H149.457V14.4551H151.244V21.9456H152.292L151.929 25.1479H150.959L150.662 22.8793H144.952V14.4551H146.739V21.9456Z" fill="#7C6757"/>
<path d="M158.664 22.8783H153.432V14.456H158.481V15.3878H155.221V18.1624H158.095V19.0705H155.221V21.9451H158.664V22.8783Z" fill="#7C6757"/>
<path d="M166.548 22.8783H164.762V19.0433H161.849V22.8783H160.062V14.456H161.849V18.1352H164.762V14.456H166.548V22.8783Z" fill="#7C6757"/>
<path d="M173.89 15.3884H171.637V22.8794H169.839V15.3884H167.573V14.4551H173.89V15.3884Z" fill="#7C6757"/>
<path d="M176.699 15.2964V19.4172H177.323C178.125 19.4172 178.592 18.9921 178.592 17.384C178.592 15.7888 178.136 15.2964 177.323 15.2964H176.699ZM174.914 14.4556H177.489C179.354 14.4556 180.52 15.3744 180.52 17.306C180.52 19.4587 178.888 20.2479 177.529 20.2479H176.699V22.8779H174.914V14.4556Z" fill="#7C6757"/>
<path d="M89.6785 38.7866H88.6935V30.9864H85.0434V38.7866H84.0606V30.364H89.6785V38.7866Z" fill="#7C6757"/>
<path d="M92.9532 30.9341V35.2881H93.8726C94.8576 35.2881 95.6853 34.7963 95.6853 33.0723C95.6853 31.5689 95.0005 30.9341 93.8854 30.9341H92.9532ZM91.9702 30.3643H93.9884C95.6854 30.3643 96.7206 31.2433 96.7206 33.0324C96.7206 35.1306 95.3109 35.8326 94.0155 35.8326H92.9532V38.7866H91.9702V30.3643Z" fill="#7C6757"/>
<path d="M101.24 30.8689C99.61 30.8689 98.6901 32.1784 98.6901 34.588C98.6901 37.012 99.5956 38.2943 101.24 38.2943C102.897 38.2943 103.817 37.012 103.817 34.588C103.817 32.1784 102.884 30.8689 101.24 30.8689ZM101.24 38.9148C98.9738 38.9148 97.6406 37.2703 97.6406 34.588C97.6406 31.918 98.9738 30.2463 101.24 30.2463C103.519 30.2463 104.865 31.918 104.865 34.588C104.865 37.2703 103.519 38.9148 101.24 38.9148Z" fill="#7C6757"/>
<path d="M107.533 34.3029V38.2155H108.53C109.927 38.2155 110.627 37.595 110.627 36.2074C110.627 34.8347 109.849 34.3029 108.503 34.3029H107.533ZM110.796 30.9853H107.533V33.7584H108.503C110.431 33.7584 111.624 34.5363 111.624 36.1822C111.624 37.8139 110.601 38.7871 108.568 38.7871H106.548V30.3628H110.796V30.9853Z" fill="#7C6757"/>
<path d="M118.641 30.3634V38.7862H117.671V30.9858H115.211C115.197 36.2207 114.317 38.8765 112.881 38.8765C112.505 38.8765 112.351 38.8005 112.351 38.8005L112.387 38.1001C112.387 38.1001 112.53 38.1529 112.713 38.1529C113.903 38.1529 114.538 35.6638 114.538 30.3634H118.641Z" fill="#7C6757"/>
<path d="M125.75 38.7866H120.933V30.364H125.465V30.9864H121.918V34.2261H125.167V34.823H121.918V38.1663H125.75V38.7866Z" fill="#7C6757"/>
<path d="M135.72 38.7866H134.762L134.722 31.5689H134.709L131.796 38.7866H131.009L128.079 31.5689L128.056 38.7866H127.342L127.382 30.364L127.407 30.4018L127.394 30.364H128.6L131.563 37.5817H131.578L134.541 30.364H135.681L135.72 38.7866Z" fill="#7C6757"/>
<path d="M140.498 30.9074C140.498 30.9074 141.391 30.2475 142.569 30.2475C144.188 30.2475 145.003 31.0905 145.003 32.373C145.003 33.4472 144.304 34.1098 143.644 34.4313C144.614 34.6395 145.288 35.2491 145.288 36.4542C145.288 37.9048 144.215 38.916 142.466 38.916C140.382 38.916 139.902 37.5957 139.902 37.5957L140.265 37.1413C140.265 37.1413 140.769 38.2813 142.361 38.2813C143.528 38.2813 144.215 37.6208 144.215 36.4285C144.215 35.2363 143.592 34.7569 142.582 34.7569L141.378 34.8077V34.1856L142.647 34.2379C143.217 34.225 143.995 33.6426 143.995 32.451C143.995 31.4125 143.489 30.8573 142.415 30.8573C141.43 30.8573 140.614 31.465 140.614 31.465L140.498 30.9074Z" fill="#7C6757"/>
<path d="M148.642 30.9852C148.604 34.9378 148.203 36.8298 147.567 38.1666H151.269V30.9852H148.642ZM152.24 30.3628V38.1666H153.225L153.069 40.9761H152.435L152.292 38.7856H147.05L146.815 40.9761H146.233L146.168 38.1666H146.867C147.554 36.8048 147.955 34.8076 147.955 30.3628H152.24Z" fill="#7C6757"/>
<path d="M157.717 30.8689C156.088 30.8689 155.168 32.1784 155.168 34.588C155.168 37.012 156.073 38.2943 157.717 38.2943C159.374 38.2943 160.296 37.012 160.296 34.588C160.296 32.1784 159.362 30.8689 157.717 30.8689ZM157.717 38.9148C155.453 38.9148 154.12 37.2703 154.12 34.588C154.12 31.918 155.453 30.2463 157.717 30.2463C159.996 30.2463 161.344 31.918 161.344 34.588C161.344 37.2703 159.996 38.9148 157.717 38.9148Z" fill="#7C6757"/>
<path d="M164.01 30.9341V35.2881H164.93C165.915 35.2881 166.742 34.7963 166.742 33.0723C166.742 31.5689 166.057 30.9341 164.944 30.9341H164.01ZM163.027 30.3643H165.047C166.742 30.3643 167.779 31.2433 167.779 33.0324C167.779 35.1306 166.367 35.8326 165.073 35.8326H164.01V38.7866H163.027V30.3643Z" fill="#7C6757"/>
<path d="M172.297 30.8689C170.667 30.8689 169.748 32.1784 169.748 34.588C169.748 37.012 170.653 38.2943 172.297 38.2943C173.954 38.2943 174.874 37.012 174.874 34.588C174.874 32.1784 173.942 30.8689 172.297 30.8689ZM172.297 38.9148C170.031 38.9148 168.698 37.2703 168.698 34.588C168.698 31.918 170.031 30.2463 172.297 30.2463C174.578 30.2463 175.922 31.918 175.922 34.588C175.922 37.2703 174.578 38.9148 172.297 38.9148Z" fill="#7C6757"/>
<path d="M178.59 34.704V38.215H179.703C181.101 38.215 181.813 37.6202 181.813 36.3644C181.813 35.1957 181.101 34.704 180.169 34.704H178.59ZM180.118 34.1738C180.558 34.1738 181.437 33.8373 181.437 32.5278C181.437 31.4258 180.7 30.9341 179.69 30.9341H178.59V34.1738H180.118ZM177.607 30.3643H179.73C181.465 30.3643 182.385 31.2433 182.385 32.4627C182.385 33.4717 181.761 34.0564 181.166 34.3677C182.122 34.626 182.784 35.3136 182.784 36.4022C182.784 37.893 181.826 38.7866 179.743 38.7866H177.607V30.3643Z" fill="#7C6757"/>
<path d="M185.452 34.3029V38.2155H186.473C187.861 38.2155 188.546 37.5699 188.546 36.2074C188.546 34.8599 187.783 34.3029 186.448 34.3029H185.452ZM184.467 30.3628H185.452V33.7584H186.448C188.365 33.7584 189.543 34.5363 189.543 36.1822C189.543 37.8139 188.533 38.7871 186.5 38.7871H184.467V30.3628Z" fill="#7C6757"/>
<path d="M193.181 34.7834H194.864V30.9341H193.181C192.482 30.9341 191.68 31.6069 191.68 32.877C191.68 34.1358 192.417 34.7834 193.181 34.7834ZM195.836 38.7866H194.864V35.3932H193.194L191.627 38.7866H190.631L192.366 35.2736C191.497 35.0025 190.709 34.2375 190.709 32.9164C190.709 31.2182 191.913 30.3643 193.143 30.3643H195.836V38.7866Z" fill="#7C6757"/>
<path d="M204.134 30.8951C202.49 30.8951 201.456 32.1381 201.456 34.6272C201.456 37.089 202.515 38.2684 204.212 38.2684C205.764 38.2684 206.543 36.9987 206.543 36.9987L206.904 37.4146C206.904 37.4146 206.089 38.916 204.096 38.916C201.765 38.916 200.406 37.31 200.406 34.6523C200.406 31.9572 201.83 30.2475 204.031 30.2475C205.365 30.2475 206.505 30.9583 206.505 30.9583L206.387 31.5807C206.387 31.5807 205.274 30.8951 204.134 30.8951Z" fill="#7C6757"/>
<path d="M213.044 38.7866H208.227V30.364H212.759V30.9864H209.212V34.2261H212.461V34.823H209.212V38.1663H213.044V38.7866Z" fill="#7C6757"/>
<path d="M223.009 38.7842H222.051L222.011 31.5665H221.999L219.086 38.7842H218.298L215.369 31.5665L215.345 38.7842H214.632L214.671 30.3615L214.697 30.3993L214.684 30.3615H215.889L218.853 37.5792H218.865L221.831 30.3615H222.971L223.009 38.7842Z" fill="#7C6757"/>
<path d="M226.273 34.3003V38.2129H227.295C228.681 38.2129 229.368 37.5673 229.368 36.2048C229.368 34.8573 228.603 34.3003 227.27 34.3003H226.273ZM225.29 30.3603H226.273V33.7558H227.27C229.185 33.7558 230.365 34.5337 230.365 36.1797C230.365 37.8113 229.354 38.7845 227.321 38.7845H225.29V30.3603Z" fill="#7C6757"/>
<path d="M238.041 38.7842H237.071V32.071L237.123 31.5916H237.11L233.032 38.6427L232.965 38.7842H232.035V30.3615H233.019V37.1398L232.954 37.5664H232.965L237.058 30.5024L237.123 30.3615H238.041V38.7842Z" fill="#7C6757"/>
<path d="M90.0666 54.6943H89.0958V47.9811L89.1466 47.5001H89.1338L85.0576 54.5527L84.9904 54.6943H84.0598V46.2715H85.0426V53.0478L84.9775 53.4764H84.9904L89.0836 46.4124L89.1466 46.2715H90.0666V54.6943Z" fill="#7C6757"/>
<path d="M96.5024 46.8417V51.194H97.4203C98.4053 51.194 99.2346 50.7038 99.2346 48.9799C99.2346 47.4764 98.5477 46.8417 97.4346 46.8417H96.5024ZM95.5174 46.272H97.5376C99.2346 46.272 100.268 47.153 100.268 48.9399C100.268 51.0403 98.8587 51.7401 97.5633 51.7401H96.5024V54.6943H95.5174V46.272Z" fill="#7C6757"/>
<path d="M106.756 54.6943H101.939V46.2715H106.471V46.894H102.924V50.1336H106.174V50.7306H102.924V54.0717H106.756V54.6943Z" fill="#7C6757"/>
<path d="M114.122 54.6943H113.139V46.894H109.489V54.6943H108.504V46.2715H114.122V54.6943Z" fill="#7C6757"/>
<path d="M117.554 46.8417V51.194H118.473C119.458 51.194 120.286 50.7038 120.286 48.9799C120.286 47.4764 119.599 46.8417 118.486 46.8417H117.554ZM116.569 46.272H118.589C120.286 46.272 121.321 47.153 121.321 48.9399C121.321 51.0403 119.91 51.7401 118.615 51.7401H117.554V54.6943H116.569V46.272Z" fill="#7C6757"/>
<path d="M125.994 46.7761C124.365 46.7761 123.447 48.0864 123.447 50.4973C123.447 52.9197 124.352 54.2001 125.994 54.2001C127.653 54.2001 128.573 52.9197 128.573 50.4973C128.573 48.0864 127.641 46.7761 125.994 46.7761ZM125.994 54.8247C123.73 54.8247 122.397 53.1782 122.397 50.4973C122.397 47.8259 123.73 46.1542 125.994 46.1542C128.275 46.1542 129.621 47.8259 129.621 50.4973C129.621 53.1782 128.275 54.8247 125.994 54.8247Z" fill="#7C6757"/>
<path d="M133.143 46.893C133.105 50.8456 132.703 52.7377 132.068 54.0729H135.77V46.893H133.143ZM136.742 46.2706V54.0729H137.725L137.57 56.884H136.937L136.794 54.6934H131.551L131.316 56.884H130.734L130.669 54.0729H131.37C132.055 52.7126 132.456 50.7153 132.456 46.2706H136.742Z" fill="#7C6757"/>
<path d="M139.683 46.271L142.401 51.727L144.381 46.271H145.158L142.749 52.4397C142.025 54.2668 141.235 54.8113 140.265 54.8113C139.553 54.8113 139.191 54.5524 139.191 54.5524L139.332 53.8652C139.332 53.8652 139.683 54.1114 140.265 54.1114C140.849 54.1114 141.367 53.8923 141.909 52.7654L138.543 46.271H139.683Z" fill="#7C6757"/>
<path d="M146.738 46.2711H147.722V50.8589L148.745 49.9507L151.58 46.2711H152.368L149.418 50.0302L152.773 54.6934H151.541L148.693 50.7788L147.722 51.5968V54.6934H146.738V46.2711Z" fill="#7C6757"/>
<path d="M155.49 54.0722H159.142V46.272H160.125V54.0722H161.097L160.929 56.8848H160.293L160.152 54.6943H154.507V46.272H155.49V54.0722Z" fill="#7C6757"/>
<path d="M168.762 54.6943H167.792V47.9811L167.843 47.5001H167.828L163.753 54.5527L163.687 54.6943H162.756V46.2715H163.739V53.0478L163.676 53.4764H163.687L167.779 46.4124L167.843 46.2715H168.762V54.6943Z" fill="#7C6757"/>
<path d="M177.204 54.6943H176.234V47.9811L176.285 47.5001H176.272L172.193 54.5527L172.128 54.6943H171.198V46.2715H172.181V53.0478L172.118 53.4764H172.128L176.22 46.4124L176.285 46.2715H177.204V54.6943Z" fill="#7C6757"/>
<path d="M187.523 54.6943H186.552V51.1305C186.552 51.1305 185.815 51.7146 184.416 51.7146C182.913 51.7146 182.333 50.8192 182.333 49.3937V46.2715H183.303V49.2507C183.303 50.5609 183.757 51.0397 184.767 51.0397C185.763 51.0397 186.462 50.6132 186.552 50.548V46.2715H187.523V54.6943Z" fill="#7C6757"/>
<path d="M194.787 54.6943H189.97V46.2715H194.502V46.894H190.955V50.1336H194.205V50.7306H190.955V54.0717H194.787V54.6943Z" fill="#7C6757"/>
<path d="M201.881 46.271V54.6933H200.911V46.8934H198.451C198.439 52.1284 197.557 54.7855 196.12 54.7855C195.744 54.7855 195.591 54.7081 195.591 54.7081L195.629 54.0077C195.629 54.0077 195.772 54.0605 195.954 54.0605C197.145 54.0605 197.777 51.5716 197.777 46.271H201.881Z" fill="#7C6757"/>
<path d="M207.334 46.7761C205.704 46.7761 204.783 48.0864 204.783 50.4973C204.783 52.9197 205.69 54.2001 207.334 54.2001C208.991 54.2001 209.911 52.9197 209.911 50.4973C209.911 48.0864 208.978 46.7761 207.334 46.7761ZM207.334 54.8247C205.068 54.8247 203.735 53.1782 203.735 50.4973C203.735 47.8259 205.068 46.1542 207.334 46.1542C209.613 46.1542 210.959 47.8259 210.959 50.4973C210.959 53.1782 209.613 54.8247 207.334 54.8247Z" fill="#7C6757"/>
<path d="M213.779 50.6107V54.1201H214.892C216.291 54.1201 217.002 53.5248 217.002 52.2695C217.002 51.1009 216.291 50.6107 215.358 50.6107H213.779ZM215.308 50.0789C215.747 50.0789 216.627 49.7426 216.627 48.4329C216.627 47.3309 215.89 46.8392 214.879 46.8392H213.779V50.0789H215.308ZM212.794 46.2696H214.919C216.652 46.2696 217.574 47.1506 217.574 48.3678C217.574 49.379 216.95 49.9631 216.356 50.2728C217.311 50.5333 217.973 51.2189 217.973 52.3059C217.973 53.7981 217.015 54.6919 214.932 54.6919H212.794V46.2696Z" fill="#7C6757"/>
<path d="M224.628 54.6919H219.812V46.2691H224.344V46.8915H220.797V50.1312H224.046V50.7281H220.797V54.0693H224.628V54.6919Z" fill="#7C6757"/>
<path d="M226.377 46.2686H227.361V50.8565L228.383 49.9482L231.219 46.2686H232.007L229.057 50.0278L232.41 54.6909H231.18L228.332 50.7763L227.361 51.5944V54.6909H226.377V46.2686Z" fill="#7C6757"/>
<path d="M234.974 51.5681H237.927L236.461 47.0188L234.974 51.5681ZM237.213 46.268L239.998 54.6925H238.973L238.095 52.1003H234.791L233.913 54.6925H233.224L236.062 46.268H237.213Z" fill="#7C6757"/>
</svg>
