<svg width="36" height="37" viewBox="0 0 36 37" fill="none" xmlns="http://www.w3.org/2000/svg">
<g clip-path="url(#clip0_1_275)">
<rect y="0.900696" width="36" height="36" fill="white"/>
<path fill-rule="evenodd" clip-rule="evenodd" d="M14.5756 13.7017C14.4886 13.7269 14.3899 13.7697 14.3564 13.797C14.2136 13.913 14.0672 14.0741 14.0237 14.1634C13.9663 14.2809 13.995 14.3134 14.211 14.3755C14.5466 14.4718 14.7627 14.6622 14.8847 14.9692C15.0047 15.2711 15.0656 16.0387 15.0415 16.9459C15.0128 18.0252 14.9273 18.4703 14.7108 18.6658C14.4189 18.9294 14.0302 18.607 13.3792 17.5614C12.8955 16.7844 12.4691 15.9294 12.0161 14.8278C11.8092 14.3245 11.6501 14.1182 11.4169 14.0508C11.3144 14.0212 10.8661 14.0121 9.89979 14.02C8.38363 14.0324 8.36447 14.0353 8.2761 14.2643C8.21084 14.4335 8.25381 14.5882 8.56842 15.3166C9.49436 17.4603 10.3552 19.1131 11.2558 20.476C12.8332 22.8632 14.342 23.9158 16.4709 24.1142C17.2116 24.1832 17.8131 24.1458 18.0455 24.0163C18.2333 23.9117 18.2907 23.7553 18.3445 23.2015C18.4015 22.6147 18.4414 22.4248 18.5693 22.1322C18.7418 21.7373 19.0032 21.6078 19.3243 21.7581C19.4515 21.8176 19.6018 21.9619 19.9785 22.3859C21.0803 23.6262 21.2229 23.7676 21.5321 23.9265C21.7142 24.0201 21.904 24.0868 22.0592 24.1119C22.3666 24.1614 24.9432 24.1645 25.1022 24.1156C25.472 24.0018 25.5947 23.5316 25.3781 23.0593C25.16 22.5838 24.7613 22.0761 23.8042 21.0553C23.3 20.5176 22.8447 20.0069 22.7922 19.9202C22.664 19.7083 22.6603 19.4657 22.7812 19.1907C22.8293 19.0811 23.2527 18.4376 23.7222 17.7605C24.6832 16.3744 24.9979 15.8788 25.2163 15.4071C25.5335 14.7223 25.5795 14.38 25.3803 14.1889C25.2118 14.0273 25.0505 14.0131 23.3917 14.0139C21.9447 14.0147 21.8416 14.019 21.7077 14.0842C21.5329 14.1694 21.4874 14.2474 21.2218 14.9176C20.6783 16.289 20.079 17.3931 19.4424 18.1955C19.1446 18.5709 18.9655 18.72 18.8125 18.72C18.6295 18.72 18.4554 18.5237 18.3488 18.1971C18.3257 18.1266 18.3058 17.3821 18.2939 16.1493C18.2759 14.273 18.273 14.2071 18.2036 14.046C18.1277 13.8696 18.0108 13.7611 17.8234 13.6928C17.655 13.6315 14.7914 13.6394 14.5756 13.7017Z" fill="#817B77"/>
</g>
<defs>
<clipPath id="clip0_1_275">
<rect width="36" height="36" fill="white" transform="translate(0 0.900696)"/>
</clipPath>
</defs>
</svg>
