<svg width="36" height="37" viewBox="0 0 36 37" fill="none" xmlns="http://www.w3.org/2000/svg">
<g clip-path="url(#clip0_1_278)">
<rect y="0.900696" width="36" height="36" fill="white"/>
<path d="M24.7167 12.0932C24.4609 11.8706 24.059 11.8387 23.6435 12.0099H23.6428C23.2058 12.1898 11.2721 17.4412 10.7863 17.6557C10.6979 17.6872 9.92624 17.9826 10.0057 18.6406C10.0767 19.2339 10.6969 19.4796 10.7727 19.5079L13.8066 20.5737C14.0078 21.2611 14.7499 23.7972 14.914 24.339C15.0163 24.6767 15.1831 25.1205 15.4755 25.2119C15.732 25.3134 15.9872 25.2206 16.1524 25.0876L18.0072 23.3226L21.0016 25.7183L21.0729 25.7621C21.2762 25.8545 21.471 25.9007 21.6569 25.9007C21.8005 25.9007 21.9384 25.873 22.0701 25.8177C22.5187 25.6287 22.6981 25.1902 22.7169 25.1405L24.9535 13.2135C25.09 12.5765 24.9003 12.2524 24.7167 12.0932ZM16.4823 21L15.4588 23.8L14.4353 20.3L22.2819 14.35L16.4823 21Z" fill="#817B77"/>
</g>
<defs>
<clipPath id="clip0_1_278">
<rect width="36" height="36" fill="white" transform="translate(0 0.900696)"/>
</clipPath>
</defs>
</svg>
